<svg width="134" height="26" viewBox="0 0 134 26" fill="none" xmlns="http://www.w3.org/2000/svg">
<path d="M107.239 0.851156L96.8503 10.9037C96.3314 11.3444 96 11.8619 96 12.6023C96 13.3394 96.3318 13.8588 96.8503 14.3028L107.239 24.352C107.306 24.4203 107.371 24.4475 107.425 24.4475C107.524 24.4475 107.592 24.358 107.589 24.2529C107.586 24.191 107.559 24.1198 107.497 24.0582C105.059 21.0279 103.284 17.5524 103.284 12.6389C103.284 7.72239 105.059 4.17865 107.497 1.14606C107.559 1.08529 107.586 1.0152 107.589 0.95182C107.592 0.844446 107.524 0.757576 107.425 0.757576C107.371 0.756515 107.306 0.783302 107.239 0.851156Z" fill="#F7F7FC"/>
<path d="M115.217 0C111.149 0 109.56 5.76579 109.56 12.6381C109.56 19.5127 111.149 25.2017 115.217 25.2017C117.658 25.2017 119.739 23.7719 119.746 22.5968C119.747 22.3395 119.648 22.0931 119.432 21.878C118.275 20.7598 117.822 19.6425 117.819 18.6563C117.812 16.7739 119.444 15.3717 120.949 15.3717C123.019 15.3717 124.239 16.9984 124.239 19.1049C124.239 21.101 123.389 22.7634 122.464 24.0948C122.427 24.1492 122.411 24.21 122.411 24.2633C122.411 24.3677 122.473 24.4535 122.565 24.4535C122.621 24.4535 122.686 24.4236 122.758 24.3517L133.15 14.3024C133.669 13.8588 134 13.3391 134 12.602C134 11.8619 133.668 11.3441 133.15 10.9034L122.758 0.850794C122.687 0.779585 122.621 0.749385 122.565 0.749385C122.472 0.749385 122.411 0.83588 122.411 0.940646C122.411 0.994333 122.427 1.05436 122.464 1.10954C123.388 2.43904 124.239 4.10335 124.239 6.09798C124.239 8.20297 123.019 9.83111 120.949 9.83111C119.444 9.83111 117.812 8.43003 117.819 6.54724C117.822 5.56111 118.275 4.44263 119.432 3.32563C119.648 3.10939 119.747 2.86519 119.746 2.60756C119.739 1.43054 117.658 0 115.217 0Z" fill="#F7F7FC"/>
<path d="M18.6833 14.5153C17.4932 14.5153 16.6241 15.1155 16.6241 16.2641C16.6241 17.3399 17.3796 18.0898 18.5135 18.0898C19.2697 18.0898 20.0259 17.6695 20.4979 17.0686V15.5365C20.4979 15.0256 19.8359 14.5153 18.6833 14.5153ZM44.4054 14.303C44.4615 16.3195 45.7472 17.7782 47.9583 17.7782C49.3008 17.7782 50.3218 17.0506 50.6801 16.5936C50.8499 16.7217 51.0212 16.9132 51.0212 17.3586C51.0212 18.3618 49.811 19.7492 46.9949 19.7492C44.1607 19.7492 41.8533 17.4889 41.8533 14.534C41.8533 11.2806 43.9895 8.95542 47.1467 8.95542C50.0167 8.95542 51.3414 11.0697 51.3414 12.8702C51.3414 13.4013 51.2277 13.8928 51.0003 14.303H44.4054ZM48.413 12.9998C48.8663 12.9998 48.8857 12.7342 48.8857 12.3787C48.8663 11.318 48.0331 10.3357 46.7682 10.3357C45.1242 10.3357 44.4809 11.7138 44.4248 12.9998H48.413ZM75.0783 14.1123C75.0783 16.5764 75.4201 17.8321 77.0087 17.8321C78.7442 17.8321 79.219 16.282 79.219 14.8737V12.1859C79.219 11.2626 78.7816 10.9042 77.7815 11.0121C77.3663 9.97443 78.7442 9.3138 79.522 9.16196C79.7652 9.12454 79.9932 9.08712 80.2033 9.08712C81.2977 9.08712 81.7179 9.77005 81.7179 10.7905C81.7179 11.1654 81.6812 11.8491 81.6812 14.6773C81.6812 15.8733 81.6618 16.5044 81.6618 16.7023C81.6618 17.6335 82.0928 18.1078 83.0921 17.9991C83.5015 19.039 82.1323 19.5319 81.3509 19.6766C81.1114 19.7125 80.8933 19.7492 80.7135 19.7492C79.6745 19.7492 79.4637 19.0749 79.2543 18.1085C79.1076 18.2898 78.9723 18.4381 78.6902 18.7101C78.0096 19.3477 77.1217 19.7313 76.1187 19.7313C75.0222 19.7313 74.0962 19.3103 73.5098 18.6194C72.6033 17.5436 72.6033 16.1568 72.6033 14.1318V12.1866C72.6033 11.2633 72.168 10.9049 71.1672 11.0129C70.7513 9.97515 72.132 9.31452 72.9062 9.16268C73.1515 9.12526 73.3775 9.08784 73.5861 9.08784C74.6812 9.08784 75.0978 9.77077 75.0978 10.7912L75.0784 14.1123H75.0783ZM70.298 14.3239C70.298 11.1273 68.087 8.95471 65.0248 8.95471C62.1907 8.95471 59.676 11.1273 59.676 14.3239C59.676 17.5608 62.0381 19.7305 64.9305 19.7305C67.9913 19.7305 70.298 17.5248 70.298 14.3239ZM22.8607 17.1406C22.8607 17.9559 23.3888 18.2157 24.3155 18.3438C24.2587 19.2908 23.5967 19.6579 22.8226 19.7305C21.9527 19.8032 21.1023 19.4002 20.7626 18.492C20.3648 18.8533 19.1934 19.7665 17.6623 19.7665C15.565 19.7665 13.9958 18.3611 13.9958 16.4468C13.9958 14.4232 15.7535 13.2243 18.2293 13.2243C19.0812 13.2243 19.9676 13.4013 20.4972 13.6755V12.3204C20.4972 11.1064 19.9676 10.3357 18.589 10.3357C18.3048 10.3357 17.6818 10.4105 17.1896 10.5976C17.2465 10.7898 17.2853 10.9949 17.2853 11.1834C17.2853 11.9246 16.8126 12.5255 16.019 12.5255C15.3189 12.5255 14.7894 11.9613 14.7894 11.241C14.7894 9.91758 16.4536 8.95398 18.7596 8.95398C20.5928 8.95398 21.7088 9.38865 22.2945 10.1435C22.8226 10.8078 22.8607 11.8289 22.8607 13.3027V17.1406ZM67.5955 14.4794C67.5955 16.9355 66.5364 18.2704 65.0442 18.2704C63.721 18.2704 62.436 16.9362 62.436 14.0231C62.436 11.7534 63.3807 10.3364 64.9305 10.3364C66.4609 10.3359 67.5955 11.9067 67.5955 14.4794ZM30.3442 10.7509C30.4011 11.3957 30.9493 11.8476 31.5911 11.8476C32.4041 11.8476 32.8956 11.1266 32.8956 10.4285C32.8956 9.44477 32.1019 8.93528 31.3076 8.93528C30.4011 8.93528 29.4369 9.61677 28.8894 10.6358L28.8513 10.6545C28.6815 9.74918 28.2462 9.06624 27.3389 9.06624C27.1309 9.06624 26.9043 9.1051 26.6589 9.17994C25.9027 9.40663 24.7875 9.99097 25.2041 11.0301C26.2625 10.8265 26.6402 11.1827 26.6402 12.106V16.5022C26.6402 17.3752 26.5273 17.7407 26.2244 17.9969C25.9402 18.2143 25.6387 18.3042 25.4495 18.3416C25.0149 19.2887 25.8653 19.5837 27.9634 19.5837C30.0614 19.5837 30.7795 19.2894 30.3449 18.3416C30.1557 18.3035 29.6269 18.2135 29.3434 17.9969C29.0405 17.7407 28.9088 17.3752 28.9088 16.5022V13.8504C28.9083 11.4864 29.7772 10.8646 30.3442 10.7509V10.7509ZM56.3505 9.21809H59.0529C59.3746 9.9917 58.94 10.6156 58.3349 10.6732C58.1456 10.6933 57.9377 10.6933 57.7492 10.6933C57.2571 10.6933 56.7664 10.6545 56.426 10.6545V16.503C56.426 17.3759 56.5771 17.7414 56.8793 17.9976C57.1635 18.215 57.8255 18.3049 58.0147 18.3423C58.4493 19.2894 57.4276 19.5844 55.3302 19.5844C53.2329 19.5844 52.3638 19.2901 52.7976 18.3423C52.9861 18.3042 53.2898 18.2142 53.5725 17.9976C53.8747 17.7414 53.9877 17.3759 53.9877 16.503V10.6149L52.4005 10.5588C52.0788 9.78659 52.5134 9.23679 53.1559 9.23679H53.951V8.48045C53.951 6.94906 54.2337 6.09774 54.6122 5.53066C55.1971 4.6232 56.1994 4 57.7672 4C59.7523 4 61.3582 4.92617 61.3582 6.32442C61.3582 6.92963 60.9423 7.66654 60.0732 7.66654C59.4314 7.66654 58.8263 7.11818 58.8263 6.43884C58.8263 6.15387 58.94 5.85162 59.0904 5.66379C58.8644 5.39897 58.3917 5.26583 57.9377 5.26583C56.6333 5.26583 56.3505 6.23015 56.3505 7.43986V9.21808V9.21809ZM38.9437 10.7509C39.0005 11.3957 39.5488 11.8476 40.1913 11.8476C41.0043 11.8476 41.495 11.1266 41.495 10.4285C41.495 9.44477 40.7014 8.93527 39.9078 8.93527C39.0005 8.93527 38.0364 9.61677 37.4896 10.6358L37.4507 10.6545C37.2816 9.74917 36.8463 9.06624 35.939 9.06624C35.7318 9.06624 35.5045 9.10509 35.2591 9.17994C34.5022 9.40662 33.387 9.99097 33.8036 11.0301C34.8619 10.8265 35.239 11.1827 35.239 12.106V16.5022C35.239 17.3752 35.1267 17.7407 34.8238 17.9969C34.5403 18.2143 34.2389 18.3042 34.0504 18.3416C33.6151 19.2887 34.4662 19.5837 36.5628 19.5837C38.6602 19.5837 39.3797 19.2894 38.9444 18.3416C38.7559 18.3035 38.227 18.2135 37.9428 17.9969C37.6406 17.7407 37.5083 17.3752 37.5083 16.5022V13.8504C37.5077 11.4864 38.3767 10.8646 38.9437 10.7509V10.7509ZM89.2453 10.7509C89.3086 11.3957 89.8612 11.8476 90.5065 11.8476C91.3081 11.8476 91.7995 11.1266 91.7995 10.4285C91.7995 9.44476 91.0174 8.93527 90.2123 8.93527C89.3086 8.93527 88.3552 9.61676 87.8091 10.6358L87.7537 10.6544C87.5883 9.74914 87.1494 9.0662 86.2586 9.0662C86.037 9.0662 85.8219 9.10507 85.5629 9.17991C84.8175 9.40659 83.7058 9.99094 84.1109 11.0301C85.1729 10.8264 85.5449 11.1827 85.5449 12.1059V16.5022C85.5449 17.3751 85.4362 17.7407 85.124 17.9969C84.8527 18.2142 84.5412 18.3042 84.3606 18.3416C83.9217 19.2886 84.7801 19.5837 86.8767 19.5837C88.974 19.5837 89.6834 19.2894 89.2445 18.3416C89.0647 18.3035 88.5358 18.2135 88.2416 17.9969C87.9538 17.7407 87.8264 17.3751 87.8264 16.5022V13.8503C87.8271 11.4863 88.6812 10.8646 89.2453 10.7509" fill="#F7F7FC"/>
<path d="M0 12.2334C0 17.0038 3.28739 19.8291 6.8597 19.8291C10.073 19.8291 12.3214 17.5695 12.3214 15.6883C12.3214 14.6866 11.6983 13.9583 10.8853 13.9583C10.0536 13.9583 9.35493 14.5225 9.35493 15.4919C9.35493 16.1108 9.69453 16.4569 9.9406 16.7296C9.5053 17.5702 8.57931 18.2618 7.14247 18.2618C4.76165 18.2618 3.04204 15.7812 3.04204 12.2139C3.04204 8.64238 4.68538 6.14668 7.06764 6.14668C8.50448 6.14668 9.42976 6.84617 9.86505 7.67879C9.61898 7.96161 9.27938 8.30199 9.27938 8.92592C9.27938 9.89023 9.97873 10.4566 10.8105 10.4566C11.6235 10.4566 12.2459 9.72184 12.2459 8.71794C12.2459 6.84545 9.99744 4.57788 6.78416 4.57788C3.21113 4.57729 0 7.67807 0 12.2334Z" fill="#F7F7FC"/>
</svg>
