<svg width="38" height="26" viewBox="0 0 38 26" fill="none" xmlns="http://www.w3.org/2000/svg">
<path d="M11.2394 0.851149L0.850259 10.9037C0.331381 11.3444 0 11.8619 0 12.6023C0 13.3394 0.331753 13.8588 0.850259 14.3028L11.2394 24.352C11.3061 24.4203 11.3706 24.4475 11.4254 24.4475C11.5238 24.4475 11.5916 24.358 11.5887 24.2529C11.5857 24.191 11.5588 24.1198 11.4973 24.0582C9.05875 21.0279 7.28443 17.5524 7.28443 12.6389C7.28443 7.72238 9.05875 4.17864 11.4973 1.14606C11.5588 1.08528 11.5857 1.0152 11.5887 0.951812C11.592 0.844438 11.5238 0.757568 11.4254 0.757568C11.3706 0.756507 11.3061 0.783294 11.2394 0.851149Z" fill="#E71E26"/>
<path d="M19.2172 0C15.1493 0 13.5598 5.76579 13.5598 12.6381C13.5598 19.5127 15.1493 25.2017 19.2172 25.2017C21.6583 25.2017 23.7391 23.7719 23.7458 22.5968C23.7468 22.3395 23.6478 22.0931 23.4319 21.878C22.2749 20.7598 21.8224 19.6425 21.819 18.6563C21.8115 16.7739 23.4442 15.3717 24.9494 15.3717C27.0186 15.3717 28.239 16.9984 28.239 19.1049C28.239 21.101 27.3887 22.7634 26.4636 24.0948C26.427 24.1492 26.4106 24.21 26.4106 24.2633C26.4114 24.3677 26.4729 24.4535 26.565 24.4535C26.6209 24.4535 26.6865 24.4236 26.758 24.3517L37.1498 14.3024C37.6686 13.8588 38 13.3391 38 12.602C38 11.8619 37.6683 11.3441 37.1498 10.9034L26.758 0.850794C26.6868 0.779585 26.6212 0.749385 26.565 0.749385C26.4721 0.749385 26.4114 0.83588 26.4106 0.940646C26.4106 0.994333 26.427 1.05436 26.4636 1.10954C27.3884 2.43904 28.239 4.10335 28.239 6.09798C28.239 8.20297 27.0186 9.83111 24.9494 9.83111C23.4442 9.83111 21.8115 8.43003 21.819 6.54724C21.8223 5.56111 22.2749 4.44263 23.4319 3.32563C23.6478 3.10939 23.7469 2.86519 23.7458 2.60756C23.7391 1.43054 21.6583 0 19.2172 0Z" fill="#1C4FD3"/>
</svg>
